<svg version="1.1" id="Layer_1" xmlns="http://www.w3.org/2000/svg" xmlns:xlink="http://www.w3.org/1999/xlink" x="0px" y="0px"
	 width="100%" viewBox="0 0 243 276" enable-background="new 0 0 243 276" xml:space="preserve">
<path fill="#000000" opacity="1.000000" stroke="none" 
	d="
M136.000000,277.000000 
	C91.833336,277.000000 48.166561,276.962006 4.500233,277.083557 
	C1.517012,277.091858 0.914856,276.482086 0.918200,273.499908 
	C1.018727,183.833344 1.018727,94.166641 0.918200,4.500092 
	C0.914857,1.517930 1.517822,0.914034 4.500108,0.917952 
	C83.166634,1.021311 161.833359,1.021311 240.499893,0.917952 
	C243.482178,0.914034 244.085144,1.517930 244.081787,4.500092 
	C243.981262,94.166641 243.981262,183.833344 244.081787,273.499908 
	C244.085144,276.482086 243.483551,277.095734 240.499680,277.084351 
	C205.833511,276.952454 171.166672,277.000000 136.000000,277.000000 
z"/>
<path fill="#FA5D1C" opacity="1.000000" stroke="none" 
	d="
M59.430153,99.265320 
	C59.182789,97.923729 59.120342,96.901924 59.035149,95.495346 
	C59.039478,93.712219 58.440441,92.409081 58.260719,90.687531 
	C56.970177,88.022064 55.883114,85.655388 54.968414,83.219620 
	C54.067245,80.819862 55.397999,80.340065 57.740913,80.753448 
	C68.947639,85.262360 74.285988,93.480354 74.930321,105.383362 
	C76.135155,107.760330 75.187935,109.953232 75.651367,112.395409 
	C76.398758,115.926338 77.016411,119.078033 77.659592,122.224518 
	C78.220963,124.970688 79.336975,126.893768 82.661140,127.128296 
	C86.113869,127.371887 87.206818,125.365814 88.117279,122.357315 
	C88.743446,120.423859 88.523903,118.849373 88.239990,116.948586 
	C88.144775,116.621292 88.040215,116.509628 88.085373,116.447891 
	C86.623543,114.336647 88.403397,111.658897 86.512970,109.398178 
	C86.142113,109.015198 86.095665,108.854721 86.105652,108.450096 
	C86.834663,106.246681 86.360939,104.223923 86.462112,101.862259 
	C86.124161,100.542419 86.008575,99.553421 85.691055,98.230255 
	C85.463661,96.888771 85.506981,95.897865 85.557053,94.534760 
	C85.718819,93.938843 85.836769,93.715988 86.190292,93.194611 
	C87.007828,85.338768 88.194038,77.935287 91.129990,70.853493 
	C93.560715,64.990379 97.890656,60.277393 100.780930,54.263351 
	C100.990135,53.938286 100.995819,54.001995 100.964188,53.997234 
	C102.757553,52.562405 103.536659,50.434814 104.801414,48.230770 
	C105.004379,47.965786 105.010803,48.014225 104.986664,48.010460 
	C105.801826,47.342190 106.169327,46.369865 106.797928,45.200668 
	C106.969231,44.945206 106.992561,45.000832 106.964661,44.989365 
	C108.476341,43.358215 109.577820,41.446354 110.784370,39.205257 
	C110.967117,38.927818 110.985832,38.990738 110.953522,38.984959 
	C114.135704,34.883648 116.606895,30.457167 117.170685,24.762096 
	C119.582329,21.105429 120.293678,21.103924 121.928093,24.314981 
	C122.964508,26.351191 123.112762,28.642426 123.914711,31.176655 
	C124.779678,38.150978 124.958847,44.685665 123.192978,51.562500 
	C123.065071,52.242546 123.036476,52.516563 122.971130,53.198570 
	C122.649498,54.932358 121.882011,56.067745 121.276886,57.694389 
	C121.079231,58.510490 121.066055,58.972172 121.167862,59.761417 
	C120.499435,61.087204 120.493706,62.284771 120.230804,63.766632 
	C120.043991,64.068962 120.016579,64.008728 120.049652,64.009796 
	C119.720024,64.325272 119.514832,64.721283 119.355568,65.528534 
	C118.551888,67.670403 117.859833,69.482666 116.999207,71.625671 
	C116.304741,72.638306 115.821114,73.344261 115.532120,74.510277 
	C115.496216,75.299873 115.437775,75.752068 115.236496,76.543854 
	C114.393074,82.960861 115.269669,88.822563 117.626801,94.839005 
	C117.824104,95.160713 117.935898,95.508698 117.973755,95.687477 
	C119.283653,98.295982 118.643082,101.240555 120.270164,103.964035 
	C120.553841,104.541573 120.666397,104.775856 120.847015,105.399033 
	C120.940575,106.329163 120.897537,106.865051 120.661606,107.793365 
	C120.108406,113.756035 120.511452,119.315956 120.725113,124.871712 
	C120.826271,127.502007 120.919075,129.899796 117.167168,130.380951 
	C114.940056,128.684418 114.949013,126.590157 115.107918,124.054581 
	C117.733643,116.727409 115.652870,110.243286 113.159172,103.454346 
	C112.741463,102.681145 112.565758,102.217628 112.370728,101.388336 
	C112.266533,100.365944 112.221382,99.692604 111.796814,98.770943 
	C111.244377,97.719185 110.927116,96.918739 110.513458,95.809387 
	C110.108559,94.651009 109.442963,94.042648 108.754906,93.026306 
	C107.458427,89.830978 105.770523,87.132751 105.496231,83.583862 
	C105.688660,81.093178 103.938210,79.273682 104.243187,78.209770 
	C103.083954,81.213936 103.550583,85.239632 105.320557,89.533615 
	C105.655762,90.326805 105.788467,90.802910 105.908615,91.671631 
	C106.133774,94.848549 106.348511,97.642654 107.391983,100.702812 
	C107.712120,101.592178 107.825432,102.120949 107.880417,103.079582 
	C107.438606,106.499138 107.306000,109.510277 107.772758,112.938049 
	C107.879616,113.883781 107.864220,114.421883 107.710487,115.343323 
	C107.066795,117.123047 106.468445,118.509842 106.599167,120.433189 
	C106.702423,122.039047 106.349792,123.188164 105.708252,124.618309 
	C105.259712,125.549469 104.875801,126.117409 104.439522,127.032379 
	C104.092148,127.968681 103.761925,128.540634 103.222626,129.368713 
	C102.525421,130.307724 101.862244,130.873611 101.507690,132.023361 
	C101.351608,132.532944 101.282196,132.735428 101.061180,133.221619 
	C100.429497,134.190491 99.725281,134.724258 99.411087,135.896851 
	C98.683693,137.621140 97.983994,139.004379 97.303322,140.770645 
	C96.608292,142.072662 95.626602,142.809235 95.339088,144.364014 
	C95.146851,144.948975 95.047241,145.179413 94.735176,145.727417 
	C91.652596,151.042572 92.690033,156.541290 92.506187,161.880096 
	C92.433121,164.001831 92.559944,166.128418 92.319946,168.661530 
	C92.134964,169.332672 92.025642,169.591858 91.651047,170.182037 
	C90.471268,171.276917 89.371399,171.392319 87.853157,171.398315 
	C79.430992,168.014313 78.822929,160.573090 78.060791,153.506287 
	C77.373924,147.137405 75.666145,141.515839 70.030136,137.347183 
	C72.780746,146.195969 69.946762,154.716568 69.013947,163.320740 
	C68.164322,171.157639 72.258987,177.441376 75.005318,184.164917 
	C76.137779,186.937363 77.692787,189.548584 78.323738,192.509323 
	C78.905869,195.241043 79.009705,198.058578 76.106468,199.527359 
	C73.104805,201.045990 70.955612,199.123901 69.342484,196.873672 
	C66.221207,192.519669 62.379807,189.593430 56.584309,189.566788 
	C63.499176,196.497314 63.768600,205.960403 66.578125,214.363297 
	C71.394440,228.768112 78.948860,241.228088 91.054520,251.139313 
	C92.543259,252.368942 93.252411,253.949387 95.213226,254.586945 
	C97.462563,255.369553 99.048668,256.689728 101.218796,257.638550 
	C102.847946,258.331360 103.890564,259.349854 105.487923,260.149017 
	C106.454971,261.198486 106.783508,262.101746 106.249832,263.463745 
	C104.875931,263.811371 103.732956,263.860962 102.170135,263.815796 
	C98.859482,262.433655 95.702660,262.264923 92.316643,261.472229 
	C88.581131,259.841095 85.007706,258.810577 81.260117,257.219818 
	C74.316734,254.438324 68.754417,250.314072 63.793865,245.276260 
	C57.071316,238.449020 51.680752,230.744415 48.040398,221.470184 
	C47.574490,220.633911 47.516659,220.012314 47.133255,219.217407 
	C46.924408,218.996811 46.989742,219.003555 46.978153,219.034286 
	C46.582722,218.586853 46.512737,217.986969 46.126347,217.218292 
	C45.920288,217.006699 45.986256,217.007050 45.975952,217.038376 
	C44.861168,213.639313 44.005829,210.129456 42.459633,206.481262 
	C41.507835,203.175125 40.777145,200.157135 40.106750,196.751663 
	C38.691097,194.674500 40.316139,192.267822 38.526245,190.347641 
	C38.162357,188.411972 38.102009,186.709213 38.051163,184.580322 
	C36.904060,181.978302 37.853371,179.590500 37.236633,176.933502 
	C37.097630,176.520706 37.040871,176.461243 37.071701,176.434052 
	C36.398556,175.494019 36.514118,174.419525 36.512020,172.981323 
	C37.409767,168.834396 36.869747,165.020996 36.909180,160.869797 
	C36.771034,160.285217 36.681786,160.062622 36.427555,159.525284 
	C35.945366,158.337952 36.048370,157.358917 35.393909,156.236633 
	C35.205791,155.949158 35.064148,155.568909 35.052853,155.366333 
	C34.932274,155.012970 34.822990,154.862198 34.665443,154.434082 
	C34.802010,153.823547 34.804398,153.481339 34.507515,152.908905 
	C34.043587,152.220657 33.727112,151.765427 33.130753,151.183350 
	C32.916218,151.007126 32.999428,150.987686 33.009560,151.029190 
	C32.809437,150.831726 32.600983,150.591202 32.295082,150.131989 
	C32.195827,149.914886 32.056705,149.585175 32.079334,149.407684 
	C31.859413,148.937256 31.612419,148.648102 31.140482,148.182037 
	C30.919415,148.001816 30.988194,148.007080 30.981930,148.040985 
	C30.414549,147.331802 30.073544,146.525742 30.520756,145.204391 
	C31.627596,144.414642 32.527554,144.511948 33.799812,144.804352 
	C40.473598,145.499115 43.754658,150.063324 47.097538,154.534332 
	C50.641098,159.273727 50.611629,165.150833 52.223778,170.508469 
	C52.730354,172.191986 53.698734,174.248474 55.414097,174.600845 
	C56.904648,174.907013 58.064461,173.174210 58.996544,171.427612 
	C59.276638,170.950500 59.387119,170.770813 59.646976,170.312256 
	C60.028942,169.205490 59.995857,168.365189 59.817726,167.221313 
	C59.602959,166.746033 59.484032,166.572021 59.115372,166.204132 
	C57.402363,161.940216 55.620193,157.967880 55.142605,153.211121 
	C55.216213,152.803864 55.284496,152.317871 55.102074,152.153763 
	C54.919647,151.989655 54.992920,151.998840 54.988121,152.035461 
	C53.933014,147.652893 53.771870,143.181580 54.314812,138.250793 
	C54.535759,136.673096 54.487183,135.517242 54.522884,133.941101 
	C54.878059,132.473083 55.615963,131.548050 55.498306,129.950256 
	C55.538208,128.443100 55.388474,127.337036 55.919151,125.907150 
	C56.129086,125.553322 56.074875,125.503540 56.106197,125.484222 
	C57.106819,121.115829 58.713707,116.889275 58.880997,111.986969 
	C59.102966,111.630524 59.024002,111.429733 59.089027,111.343658 
	C59.433487,107.371719 60.585949,103.520348 59.430153,99.265320 
z"/>
<path fill="#FA5D1C" opacity="1.000000" stroke="none" 
	d="
M116.810654,130.257874 
	C119.234505,129.299194 119.044731,127.518898 118.978363,125.907845 
	C118.769890,120.847649 119.635696,115.738724 118.205009,110.725784 
	C117.846550,109.469795 117.843025,108.079086 119.619553,107.127121 
	C120.943680,107.477158 120.943108,108.459702 121.277847,109.652672 
	C121.420189,110.210297 121.455620,110.439240 121.516342,111.016273 
	C122.448273,114.842850 121.775856,118.395775 122.084702,122.254547 
	C122.220123,122.822189 122.309265,123.039917 122.603844,123.544571 
	C126.048340,127.798843 127.292938,127.610115 131.062622,122.271927 
	C131.797745,119.851936 131.402649,117.723785 131.335602,115.280525 
	C131.177612,112.592606 131.141220,110.237404 131.168137,107.444466 
	C131.638382,106.087181 131.428650,105.093140 131.686920,103.788368 
	C132.820435,92.576607 138.385254,84.302933 146.567596,77.531952 
	C147.713379,76.583809 148.990082,75.801743 150.290222,75.081726 
	C151.154404,74.603142 152.115387,74.144524 153.046661,74.917519 
	C154.139252,75.824432 154.087463,77.038361 153.370255,78.038506 
	C151.380066,80.813820 150.924728,84.106361 149.999619,87.623871 
	C149.941986,88.235947 149.910126,88.478233 149.752991,89.061615 
	C148.365814,92.610283 149.258728,95.949646 149.059998,99.562187 
	C149.149002,100.122978 149.205261,100.341805 149.366272,100.879211 
	C149.791763,102.706253 150.577072,104.034439 151.308853,105.716522 
	C151.833603,106.234688 152.181854,106.478676 152.698364,106.983383 
	C152.856003,107.259315 152.965439,107.464127 152.962128,107.580185 
	C153.839767,109.174782 153.624146,111.019875 154.821503,112.731354 
	C155.084885,112.982002 155.018921,112.991257 155.026443,112.958817 
	C155.848953,114.010628 155.309860,115.308136 155.841492,116.745819 
	C156.089996,117.015480 156.016556,116.995369 156.027267,116.958832 
	C156.696457,117.710091 156.402405,118.696999 156.709381,119.909851 
	C156.824692,120.237328 156.946198,120.548996 156.935699,120.715927 
	C157.077591,121.064026 157.229996,121.245209 157.346405,121.779587 
	C156.788116,124.473305 156.983383,126.832001 157.221985,129.532761 
	C157.334564,130.111679 157.356720,130.347336 157.154236,130.857910 
	C156.929596,131.132828 156.938568,131.486038 156.883118,131.653778 
	C156.268097,133.366165 156.499268,134.946274 156.848999,136.769516 
	C157.081131,137.017746 156.995834,137.010010 156.999298,136.967316 
	C157.154526,137.100342 157.306259,137.276047 157.639465,137.748978 
	C159.307449,142.218292 161.186768,138.726898 161.504333,137.807495 
	C163.558060,131.862030 167.973206,128.176620 173.020111,125.077705 
	C175.331787,123.658295 177.581558,122.235710 179.699173,120.044922 
	C180.500244,119.517471 180.484863,118.911972 180.831116,118.159378 
	C180.985855,117.923119 180.993134,117.993622 180.957825,117.996597 
	C181.216919,117.774147 181.480591,117.517174 181.875671,117.003876 
	C182.037857,116.779114 182.023895,116.309883 182.112518,116.092537 
	C183.492386,114.962288 182.953796,112.237679 185.780182,112.777100 
	C186.072372,112.998795 185.987045,113.042747 185.963440,113.000961 
	C186.078613,113.092072 186.217407,113.224976 186.556671,113.565002 
	C186.813660,114.843597 186.870193,115.915085 186.877853,117.387390 
	C188.124542,119.505608 187.270737,121.461922 187.168915,123.695633 
	C186.852707,125.926941 186.809692,127.766891 186.428955,129.806488 
	C185.234589,130.665497 185.616730,131.664719 185.223267,132.785522 
	C185.039871,133.069595 185.017136,133.006958 185.050415,133.005569 
	C184.625916,133.376129 184.509521,133.903473 184.281342,134.676819 
	C182.634766,140.601761 177.835403,144.234253 175.164001,149.215744 
	C173.938431,151.501114 172.256241,153.533310 171.854004,156.596268 
	C169.599899,158.747284 170.789139,161.183075 170.657379,163.654541 
	C171.160477,164.489029 171.542877,165.005386 172.072815,165.811432 
	C173.893417,167.051407 175.637711,166.868408 177.656769,166.213531 
	C182.165222,158.295761 188.125031,152.778046 197.421616,151.072845 
	C199.287308,149.998627 200.958130,150.645416 202.967285,150.875916 
	C203.377594,151.148712 203.438904,151.068466 203.477570,151.100952 
	C204.712799,151.468445 204.627869,152.368652 204.239655,153.689301 
	C204.007401,154.078369 204.013885,154.011475 204.045685,154.022324 
	C203.396942,154.505096 202.607803,154.788635 201.717712,155.492950 
	C197.437195,160.495682 195.186096,166.108749 193.861588,172.577118 
	C192.596252,175.803497 192.773132,178.920517 191.855804,182.161926 
	C191.457199,183.820969 191.282578,185.171860 190.975098,186.839905 
	C190.341049,188.915970 189.729218,190.653397 188.970886,192.719849 
	C186.792419,199.900726 184.957199,206.818192 182.045990,213.735870 
	C182.019318,214.532532 181.988419,214.968506 181.879303,215.722931 
	C181.675964,216.221329 181.550812,216.401306 181.204102,216.824280 
	C180.982559,217.067261 180.988113,216.980911 181.031342,216.982758 
	C180.036942,218.059128 179.965317,219.598053 179.070740,221.138092 
	C178.910141,221.457657 178.998581,221.501221 178.952637,221.482605 
	C178.852951,221.883591 178.697311,222.259354 178.227646,222.826569 
	C178.030991,223.068542 178.011765,223.006729 178.042664,223.016388 
	C177.760056,223.330093 177.507385,223.678955 177.059540,224.277817 
	C175.544235,225.469833 175.076706,226.945038 174.268982,228.592743 
	C174.092667,228.866562 174.085297,229.095749 173.972794,229.117798 
	C173.301605,229.676819 172.847092,230.290207 172.633881,231.244781 
	C172.761765,231.502823 172.690231,231.608948 172.626266,231.607086 
	C170.192322,232.940109 169.744949,235.625916 168.125565,237.925842 
	C167.945892,238.486694 167.844254,238.690079 167.443420,238.868561 
	C164.188705,241.636551 161.394562,244.658081 158.250092,247.810837 
	C158.023727,248.068115 157.999985,248.011032 158.029907,248.018768 
	C156.285400,248.895096 154.737991,250.058136 153.248840,251.818802 
	C153.036423,252.065399 152.994858,252.013229 153.024841,252.027679 
	C152.332352,252.625839 151.486343,252.764557 150.316528,252.903503 
	C149.866867,253.357529 149.691818,253.634064 149.277390,253.991150 
	C148.619934,254.372665 148.153625,254.533661 147.282440,254.434937 
	C146.573944,253.960342 146.318100,253.547424 146.152023,252.703979 
	C147.574219,247.827454 151.878662,245.337738 154.161133,241.009430 
	C154.592636,240.392731 154.852448,240.056961 155.304077,239.484131 
	C155.838638,238.759338 156.217331,238.299164 156.707489,237.556122 
	C157.166016,236.789230 157.476547,236.278687 157.669830,235.372925 
	C157.976196,234.217453 158.364136,233.430939 158.872955,232.320190 
	C162.191940,225.945892 162.965652,219.133209 165.111420,212.380585 
	C165.102371,211.300446 165.178406,210.585632 165.394806,209.529938 
	C165.692581,208.515762 166.024490,207.894058 166.285141,206.886673 
	C166.405228,205.157318 166.869919,203.860443 167.407501,202.234009 
	C167.800522,201.296219 168.156052,200.716309 168.446960,199.744873 
	C169.179428,197.017563 170.510071,194.893082 171.447723,192.236908 
	C171.681412,191.713318 171.785156,191.507996 172.070404,191.009796 
	C172.390442,190.535187 172.528961,190.353485 172.902527,189.926514 
	C174.658569,188.367569 175.805206,186.775513 176.787430,184.659149 
	C177.882111,182.906403 179.181992,181.766037 180.572723,180.312775 
	C181.366226,178.531082 180.185181,178.734299 179.011292,178.669632 
	C177.830750,178.967484 176.956543,178.960693 175.761139,178.823761 
	C174.389603,178.557266 173.387650,178.641418 172.260956,179.511200 
	C171.868378,179.850571 171.702423,179.976105 171.272644,180.267761 
	C170.648331,180.630920 170.280624,180.813278 169.631165,181.108154 
	C168.634506,181.552628 167.884583,181.808807 166.949844,182.375793 
	C166.351746,182.749725 166.002579,182.956360 165.384613,183.325058 
	C163.402969,184.373642 161.763870,185.398834 159.697952,186.326416 
	C158.710159,186.593582 158.086472,186.875732 157.126083,187.282852 
	C155.821213,187.636292 154.847351,187.605774 153.502548,187.409210 
	C152.415894,187.082794 151.770340,186.679199 150.742142,186.179398 
	C149.970322,185.696121 149.587784,185.342361 149.027298,184.612595 
	C148.479248,183.557404 148.031845,182.895432 147.507477,181.817566 
	C146.698456,178.801529 146.964554,176.124344 147.147430,173.066467 
	C147.485321,171.964752 147.773010,171.257950 148.076721,170.174164 
	C148.157654,168.329010 148.569214,166.934937 149.258087,165.245758 
	C149.710831,164.282516 150.053375,163.659988 150.210999,162.598572 
	C150.286179,161.756805 150.403549,161.287933 150.701691,160.487793 
	C152.121262,156.630753 152.796326,153.025726 152.413986,148.910828 
	C151.967896,146.482040 151.467880,144.436752 150.570831,142.143875 
	C150.195892,141.188690 150.011597,140.533493 149.643326,139.591492 
	C148.876251,137.002060 147.841766,134.898392 146.434891,132.621735 
	C145.936142,131.832062 145.665039,131.276581 145.202057,130.487885 
	C144.905151,130.089401 144.787659,129.930847 144.494965,129.538834 
	C143.808151,128.742218 143.263290,128.238068 142.161499,128.317276 
	C140.748383,131.489197 141.662506,134.593124 141.960968,138.013153 
	C142.183167,138.768616 142.243469,139.212616 142.223999,139.997589 
	C142.153320,140.546463 142.107178,140.761887 141.954315,141.284454 
	C141.438400,142.339279 141.161469,143.115936 141.332825,144.317627 
	C141.347412,145.807831 140.776321,146.831345 140.504639,148.290009 
	C140.342896,149.113785 140.160019,149.557281 139.685883,150.264832 
	C139.069901,150.865738 138.648026,151.112076 137.823486,151.351807 
	C134.214661,151.174576 133.092941,153.971420 130.935364,155.945557 
	C128.831253,156.654388 127.018387,156.459305 124.825554,156.373444 
	C123.677887,156.117371 122.956543,155.806000 121.859344,155.382843 
	C120.826492,154.799774 120.305443,154.227264 119.703537,153.222733 
	C119.121155,151.730270 118.897209,150.496262 117.894638,149.184387 
	C117.673843,148.585663 117.617645,148.333008 117.493027,147.694550 
	C115.810318,142.631042 116.979561,137.633423 115.795364,132.488892 
	C115.932510,131.506653 116.149902,130.989288 116.810654,130.257874 
z"/>
<path fill="#E36A3E" opacity="1.000000" stroke="none" 
	d="
M149.385895,89.307640 
	C148.687119,84.341393 151.244110,80.330750 152.928207,75.918289 
	C144.172867,77.416191 135.220016,89.613434 132.146484,103.711205 
	C131.792679,104.216881 131.679947,104.429825 131.378281,104.334663 
	C132.336761,89.974426 138.980927,79.655563 152.024109,73.238358 
	C152.575348,72.498177 153.149857,72.512016 153.808273,72.094185 
	C153.997238,71.907417 153.989990,71.975395 153.958008,71.963318 
	C155.067780,71.349007 156.165939,71.213310 157.013596,72.675346 
	C154.620789,78.026222 151.640076,82.672226 150.926514,88.625381 
	C150.514343,89.334015 150.119125,89.489510 149.385895,89.307640 
z"/>
<path fill="#E77045" opacity="1.000000" stroke="none" 
	d="
M100.663330,54.063393 
	C101.075912,55.495514 100.700211,57.000267 99.777412,58.188679 
	C91.755333,68.519859 87.792244,80.261452 87.161430,93.593719 
	C85.856316,91.590202 86.844749,89.132645 86.309937,86.387314 
	C87.342400,75.648857 91.586533,66.512001 97.388733,58.008320 
	C98.293663,56.682053 99.350128,55.459183 100.663330,54.063393 
z"/>
<path fill="#EACC85" opacity="1.000000" stroke="none" 
	d="
M138.824432,258.728180 
	C135.505875,262.856476 130.691299,263.316132 125.549332,263.996429 
	C123.271156,265.012238 121.253563,264.274597 118.894714,264.477966 
	C117.392334,264.134705 116.274918,263.865814 115.816254,262.249329 
	C119.471199,258.776062 124.241486,260.089691 128.657913,258.535828 
	C131.407715,259.571259 133.458374,258.237091 135.998901,257.668884 
	C137.207748,257.655823 137.940536,257.911652 138.824432,258.728180 
z"/>
<path fill="#E1643A" opacity="1.000000" stroke="none" 
	d="
M182.372421,213.922623 
	C181.783127,213.510773 181.122375,212.710144 181.307404,212.371170 
	C184.588974,206.359009 184.862503,199.271469 188.501617,193.167786 
	C189.212341,200.668793 185.423660,207.051849 182.372421,213.922623 
z"/>
<path fill="#E56E41" opacity="1.000000" stroke="none" 
	d="
M122.942261,53.265930 
	C122.772324,46.293636 122.878616,39.116631 122.976135,31.471779 
	C123.134842,30.891861 123.302322,30.779789 123.771149,30.691597 
	C124.369598,30.996918 124.580315,31.331234 124.787186,32.013081 
	C124.882957,32.299622 125.020798,32.466568 124.966003,32.559925 
	C126.211594,36.525093 125.158821,40.514221 125.495682,44.892494 
	C125.476494,45.656361 125.460167,45.961658 125.236694,46.676098 
	C125.029549,47.085243 124.994308,47.005600 125.034073,46.987850 
	C123.944908,48.316650 124.781448,49.946499 124.242416,51.739670 
	C124.050354,52.073578 124.020218,52.012550 124.053490,52.005386 
	C123.767441,52.328136 123.476578,52.681290 122.942261,53.265930 
z"/>
<path fill="#E79275" opacity="1.000000" stroke="none" 
	d="
M57.927216,80.624519 
	C56.444736,81.011856 54.982647,81.055656 56.084740,83.442612 
	C57.115822,85.675766 57.862427,88.040268 58.751274,90.709007 
	C58.625660,91.262604 58.483006,91.454147 58.140480,91.348381 
	C55.733044,88.298897 54.492508,85.023857 53.017265,81.530350 
	C52.102150,79.817406 52.502548,78.985069 54.423782,78.821388 
	C55.336006,80.574852 56.878849,79.688812 57.927216,80.624519 
z"/>
<path fill="#E77045" opacity="1.000000" stroke="none" 
	d="
M118.233719,24.697149 
	C117.173309,30.219572 115.893593,35.231190 111.261749,38.912106 
	C111.932915,35.227131 114.014435,31.982925 116.007294,28.294399 
	C116.804283,26.558002 116.343674,25.051855 116.677246,23.252974 
	C117.045410,22.825455 117.281937,22.746933 117.870415,22.795948 
	C118.427986,23.390850 118.501488,23.878181 118.233719,24.697149 
z"/>
<path fill="#E46035" opacity="1.000000" stroke="none" 
	d="
M118.215424,24.815655 
	C117.999550,24.519979 117.974976,24.031075 117.911850,23.177086 
	C117.114487,21.772306 117.141235,20.771542 118.393311,19.624945 
	C120.025703,19.206778 120.859604,19.898565 121.770157,21.142031 
	C121.924408,21.526243 121.999084,21.501394 121.961273,21.511055 
	C122.512154,22.398405 122.485962,23.415455 122.839554,24.673336 
	C124.301399,25.307615 123.952728,26.306345 123.995102,27.476658 
	C124.086906,28.841524 124.754539,29.809130 124.018326,30.932619 
	C123.701591,30.966871 123.334541,30.981213 123.150955,30.992575 
	C122.162178,28.719343 121.508560,26.365889 120.510452,24.168941 
	C119.448074,21.830549 119.021698,24.010513 118.215424,24.815655 
z"/>
<path fill="#D95C2F" opacity="1.000000" stroke="none" 
	d="
M117.917755,94.762634 
	C113.413635,89.594124 113.523766,83.186684 114.577774,76.278198 
	C116.327934,79.236099 115.070221,82.766129 115.678406,86.583389 
	C117.340050,89.218269 117.372375,91.881866 117.917755,94.762634 
z"/>
<path fill="#E87F57" opacity="1.000000" stroke="none" 
	d="
M158.379440,248.058044 
	C159.639496,243.889221 163.080704,241.409653 166.897736,238.920151 
	C165.573135,243.025635 162.184708,245.565353 158.379440,248.058044 
z"/>
<path fill="#DD7F32" opacity="1.000000" stroke="none" 
	d="
M146.427917,253.685135 
	C147.201447,253.946060 147.726486,253.983307 148.644775,254.046127 
	C146.606766,256.328430 144.287323,258.775238 140.279755,258.927002 
	C139.005310,257.714111 139.513550,256.755859 140.539856,255.603958 
	C140.962158,255.236343 141.137650,255.097733 141.604401,254.796692 
	C142.512115,254.384277 143.091476,254.064743 143.940201,253.540771 
	C144.449524,253.325668 144.665710,253.270355 145.216476,253.223907 
	C145.760529,253.309021 145.969971,253.385254 146.427917,253.685135 
z"/>
<path fill="#F3AA8F" opacity="1.000000" stroke="none" 
	d="
M81.084106,257.351318 
	C84.847923,257.140533 88.080330,259.358063 91.972443,260.624573 
	C91.890961,261.314392 91.403503,261.516602 90.421288,261.260925 
	C86.875175,260.535828 83.661278,260.115448 81.084106,257.351318 
z"/>
<path fill="#F8B9A5" opacity="1.000000" stroke="none" 
	d="
M90.184006,261.440491 
	C90.536346,261.039856 91.031158,260.999573 91.894699,260.897125 
	C95.298157,261.670624 98.660263,261.221069 101.581436,263.443237 
	C97.766487,264.127228 94.106438,262.607330 90.184006,261.440491 
z"/>
<path fill="#F3A285" opacity="1.000000" stroke="none" 
	d="
M59.182327,99.410934 
	C62.777237,102.719681 59.717209,106.692993 59.375362,110.917542 
	C59.142509,107.463829 59.130962,103.670082 59.182327,99.410934 
z"/>
<path fill="#EE9574" opacity="1.000000" stroke="none" 
	d="
M191.359222,183.368958 
	C191.842178,179.829514 191.189194,176.291718 193.454514,173.130310 
	C194.713425,176.326675 192.609436,179.372009 192.447021,182.848083 
	C191.938019,183.249603 191.778442,183.454391 191.359222,183.368958 
z"/>
<path fill="#F3AA8F" opacity="1.000000" stroke="none" 
	d="
M42.195961,206.566437 
	C44.865192,209.040176 45.519615,212.661911 46.081947,216.671921 
	C42.946495,214.351044 43.622707,210.241684 42.195961,206.566437 
z"/>
<path fill="#F9E6D0" opacity="1.000000" stroke="none" 
	d="
M117.409325,263.672363 
	C119.959160,263.872162 122.090202,263.917633 124.679764,263.979309 
	C119.350105,266.175507 113.358849,264.487152 107.247284,264.560425 
	C107.174278,263.943665 107.333092,263.689026 107.864281,263.182373 
	C111.222115,262.120789 114.130157,262.464355 117.409325,263.672363 
z"/>
<path fill="#F3A285" opacity="1.000000" stroke="none" 
	d="
M58.738056,111.862671 
	C59.277351,116.223335 58.186607,120.583023 56.401066,125.164078 
	C55.446701,120.768089 58.245415,116.654762 58.738056,111.862671 
z"/>
<path fill="#E45526" opacity="1.000000" stroke="none" 
	d="
M122.375732,123.459366 
	C119.716125,119.731216 121.494606,115.177719 121.044304,110.372986 
	C121.069511,109.903595 121.463081,109.635262 121.647079,109.786476 
	C122.203041,111.039658 122.574997,112.141617 122.896286,113.598389 
	C122.076653,116.960426 122.723579,120.025795 122.375732,123.459366 
z"/>
<path fill="#F08C20" opacity="1.000000" stroke="none" 
	d="
M108.362320,263.709900 
	C107.835960,263.926575 107.671089,263.978455 107.260849,264.114319 
	C106.851273,264.121063 106.687080,264.043884 106.270905,263.864258 
	C105.752747,263.036041 105.486580,262.310272 105.085281,261.324463 
	C105.214470,260.557800 105.598175,260.169067 106.497337,259.769897 
	C108.874542,259.184265 110.728966,259.553192 112.866280,260.674927 
	C113.447693,261.020691 113.656921,261.194153 114.063530,261.721893 
	C113.043312,264.933441 110.520409,262.870392 108.362320,263.709900 
z"/>
<path fill="#EE9574" opacity="1.000000" stroke="none" 
	d="
M54.747650,136.672653 
	C54.984940,141.695587 55.022453,146.413177 55.021645,151.601410 
	C53.485069,151.313171 54.134048,149.899368 53.897800,148.364136 
	C53.149380,144.921616 53.619801,141.815216 53.750553,138.304077 
	C53.949944,137.883118 53.994022,137.418381 54.070873,137.197998 
	C54.281105,136.774170 54.414490,136.570740 54.747650,136.672653 
z"/>
<path fill="#F8B9A5" opacity="1.000000" stroke="none" 
	d="
M121.967377,21.118496 
	C121.166832,21.002291 120.409264,20.478334 119.329063,19.828514 
	C118.173470,19.370033 117.241325,19.234144 116.375946,18.252274 
	C115.578720,15.351537 117.493042,15.630612 118.616608,16.388134 
	C120.106361,17.392555 122.005264,18.404629 121.967377,21.118496 
z"/>
<path fill="#FEA10F" opacity="1.000000" stroke="none" 
	d="
M141.806366,255.669846 
	C141.382034,256.780365 140.738876,257.533234 139.997437,258.570618 
	C139.899155,258.855103 139.485565,258.983978 139.271332,259.017700 
	C138.182892,259.101807 137.308685,259.152161 135.997681,259.242035 
	C134.484085,256.900635 135.762863,255.546494 138.070953,254.346390 
	C139.662354,254.170944 140.686081,254.566040 141.806366,255.669846 
z"/>
<path fill="#E77045" opacity="1.000000" stroke="none" 
	d="
M104.679443,48.085529 
	C104.840866,50.482082 104.304886,52.785488 101.281937,53.929779 
	C101.248940,51.576019 102.462318,49.689960 104.679443,48.085529 
z"/>
<path fill="#E87F57" opacity="1.000000" stroke="none" 
	d="
M168.244431,238.053925 
	C168.020432,235.294525 169.528610,233.198883 172.199829,231.589996 
	C171.479553,233.857742 170.754562,236.337814 168.244431,238.053925 
z"/>
<path fill="#FFCCB5" opacity="1.000000" stroke="none" 
	d="
M125.203751,46.213959 
	C124.922760,41.879776 124.854630,37.755222 124.848862,33.141975 
	C127.277672,36.617432 125.385216,40.949474 125.896072,45.519524 
	C125.677971,46.122990 125.547295,46.273289 125.203751,46.213959 
z"/>
<path fill="#F3AA8F" opacity="1.000000" stroke="none" 
	d="
M115.878700,86.539078 
	C114.137848,83.735062 115.143608,80.222687 114.826187,76.371826 
	C114.873230,75.582085 114.970207,75.248383 115.073944,74.652985 
	C115.155609,74.108780 115.230530,73.826279 115.608383,73.860672 
	C115.921577,78.144531 115.931839,82.111496 115.878700,86.539078 
z"/>
<path fill="#F3AA8F" opacity="1.000000" stroke="none" 
	d="
M149.069473,89.105553 
	C149.494598,89.085808 149.880112,89.045753 150.556961,89.014282 
	C149.083939,92.598953 150.513809,96.434746 149.880188,100.557648 
	C149.662598,101.208038 149.511841,101.408974 149.213928,101.263008 
	C149.066788,100.916115 149.014023,100.955147 149.042145,100.972046 
	C147.860825,97.308586 148.747345,93.534630 148.817139,89.405426 
	C149.063309,89.002701 149.029846,89.085243 149.069473,89.105553 
z"/>
<path fill="#D95C2F" opacity="1.000000" stroke="none" 
	d="
M120.377518,104.455292 
	C117.796928,102.570992 118.062088,99.599564 118.003952,96.292953 
	C119.847069,97.209641 120.013580,99.182678 120.058670,101.595581 
	C120.563705,102.622894 120.505913,103.376427 120.377518,104.455292 
z"/>
<path fill="#F8B9A5" opacity="1.000000" stroke="none" 
	d="
M186.031769,112.643600 
	C183.878372,112.494507 184.148499,115.083344 182.492126,115.747192 
	C182.485870,114.489243 182.488205,112.956970 183.114563,111.748001 
	C184.392426,109.281494 185.394562,110.134232 186.031769,112.643600 
z"/>
<path fill="#E77045" opacity="1.000000" stroke="none" 
	d="
M110.643333,39.051346 
	C111.121086,41.622852 109.726234,43.449570 107.282784,44.930149 
	C107.137077,42.503010 108.467590,40.686958 110.643333,39.051346 
z"/>
<path fill="#E87F57" opacity="1.000000" stroke="none" 
	d="
M153.383118,252.067596 
	C153.302597,249.480469 155.004288,248.416092 157.694733,248.019409 
	C156.891571,249.668854 155.777756,251.369507 153.383118,252.067596 
z"/>
<path fill="#F8B9A5" opacity="1.000000" stroke="none" 
	d="
M157.328873,130.952148 
	C156.901688,130.955582 156.873764,130.778336 156.794296,130.336914 
	C156.265656,127.656731 156.573669,125.218788 156.666168,122.351654 
	C156.824615,121.742561 156.856171,121.572220 156.906464,121.142365 
	C159.197769,124.016258 157.659210,127.459137 157.328873,130.952148 
z"/>
<path fill="#EE9C7E" opacity="1.000000" stroke="none" 
	d="
M122.411636,123.851143 
	C121.948921,120.764214 121.677597,117.664062 122.570587,114.259323 
	C122.879997,116.957359 122.914368,119.961517 122.879013,123.398590 
	C122.809288,123.831505 122.543762,123.837822 122.411636,123.851143 
z"/>
<path fill="#F7B19C" opacity="1.000000" stroke="none" 
	d="
M116.070671,18.383236 
	C117.167427,18.047791 118.221611,18.025885 118.903091,19.417212 
	C118.142662,20.281670 117.941696,21.168121 117.878952,22.466650 
	C117.873306,22.812000 117.561516,23.088596 117.390465,23.207634 
	C116.371758,23.034523 116.548256,22.277679 116.309784,21.335442 
	C116.110168,20.271181 116.056252,19.514496 116.070671,18.383236 
z"/>
<path fill="#F9E6D0" opacity="1.000000" stroke="none" 
	d="
M53.565708,138.073227 
	C53.935246,140.950760 53.920551,144.018387 53.867989,147.539703 
	C52.136051,144.848557 53.252926,141.516327 53.565708,138.073227 
z"/>
<path fill="#F7B19C" opacity="1.000000" stroke="none" 
	d="
M36.584175,167.144989 
	C35.476292,164.713028 36.695168,162.144257 35.323826,159.435211 
	C35.526756,158.670883 35.943787,158.529816 36.687950,158.846710 
	C36.938614,159.097519 36.985676,159.039703 36.956291,159.016785 
	C38.086555,161.117889 37.231934,163.413742 37.462692,166.038116 
	C37.291100,166.706146 37.148434,166.950592 36.584175,167.144989 
z"/>
<path fill="#F3A285" opacity="1.000000" stroke="none" 
	d="
M120.210823,104.854401 
	C120.188454,104.092285 120.147308,103.388130 120.097366,102.331169 
	C122.544182,103.880646 121.987686,106.573822 121.898300,109.532196 
	C121.831085,109.937691 121.450256,109.921036 121.259888,109.912315 
	C121.069511,109.903595 121.021385,109.955734 121.050522,109.975853 
	C119.943184,108.662071 120.778847,107.044029 120.258316,105.260918 
	C120.071121,104.927422 120.192047,104.912369 120.210823,104.854401 
z"/>
<path fill="#F9E6D0" opacity="1.000000" stroke="none" 
	d="
M36.096901,167.529266 
	C36.162586,167.094940 36.494469,167.090164 36.660427,167.089798 
	C38.056862,168.273193 37.285378,169.777252 37.388008,171.546997 
	C37.302166,173.153564 37.300865,174.341110 37.201050,175.967758 
	C34.774815,173.842484 36.546566,170.757935 36.096901,167.529266 
z"/>
<path fill="#D39C8C" opacity="1.000000" stroke="none" 
	d="
M204.420288,153.985565 
	C203.953430,153.331345 203.899475,152.584320 203.680878,151.485367 
	C204.731110,151.399673 206.615067,149.857254 207.016113,152.295212 
	C207.300034,154.021027 206.075455,154.056259 204.420288,153.985565 
z"/>
<path fill="#E6612D" opacity="1.000000" stroke="none" 
	d="
M149.052109,101.288689 
	C149.066788,100.916115 149.442291,100.942940 149.627838,100.975021 
	C150.472733,102.117180 151.132111,103.227264 151.823608,104.666451 
	C151.564774,105.493958 151.650208,106.091354 151.223923,106.798080 
	C149.729477,105.445045 149.259277,103.599289 149.052109,101.288689 
z"/>
<path fill="#D39C8C" opacity="1.000000" stroke="none" 
	d="
M34.013252,144.671600 
	C33.147507,145.150665 32.117966,145.254898 30.589571,145.495148 
	C29.855286,146.346268 29.349535,146.570831 28.390335,146.237976 
	C28.191700,145.363098 26.311562,144.233231 28.451796,144.066681 
	C30.234255,143.927948 32.049011,144.204269 34.013252,144.671600 
z"/>
<path fill="#E87F57" opacity="1.000000" stroke="none" 
	d="
M174.391022,228.764191 
	C174.057892,226.944260 174.626068,225.310593 176.612823,224.054550 
	C177.098984,224.053711 177.291489,224.213730 177.276154,224.686462 
	C176.275345,226.220062 175.482376,227.440948 174.391022,228.764191 
z"/>
<path fill="#F8B9A5" opacity="1.000000" stroke="none" 
	d="
M86.393967,93.848892 
	C86.251839,95.215546 86.206802,96.174789 86.162010,97.494225 
	C86.506866,98.488876 86.498566,99.180214 86.206924,100.460388 
	C84.153870,98.272552 85.203278,95.258186 85.557419,92.133728 
	C86.340546,92.350883 86.529549,92.853378 86.393967,93.848892 
z"/>
<path fill="#DB6C46" opacity="1.000000" stroke="none" 
	d="
M155.052704,112.608345 
	C152.529510,112.393066 153.087845,110.279884 152.932007,108.112831 
	C154.336349,108.895470 155.032639,110.404182 155.052704,112.608345 
z"/>
<path fill="#E38863" opacity="1.000000" stroke="none" 
	d="
M86.460297,94.183716 
	C86.199974,93.742012 86.103081,93.227722 85.965057,92.323730 
	C85.946594,90.236557 85.969269,88.539093 86.077744,86.425735 
	C87.638084,88.237297 86.699860,90.723541 86.922264,93.499603 
	C86.922096,93.913933 86.623718,94.111122 86.460297,94.183716 
z"/>
<path fill="#F3A285" opacity="1.000000" stroke="none" 
	d="
M86.329819,109.525246 
	C88.954903,110.612602 87.627037,113.369904 88.180084,115.945389 
	C85.548859,114.732697 88.141396,111.760551 86.329819,109.525246 
z"/>
<path fill="#F7B19C" opacity="1.000000" stroke="none" 
	d="
M177.506012,166.007507 
	C176.319504,167.948227 174.488708,167.666840 172.395813,166.332535 
	C173.845810,166.072235 175.471283,166.043365 177.506012,166.007507 
z"/>
<path fill="#E87F57" opacity="1.000000" stroke="none" 
	d="
M170.861115,163.575043 
	C169.774445,161.673447 169.218353,159.397675 171.456879,157.111725 
	C170.739578,158.937286 171.113449,161.094070 170.861115,163.575043 
z"/>
<path fill="#F3AA8F" opacity="1.000000" stroke="none" 
	d="
M75.827415,112.368683 
	C75.463394,110.725754 75.156776,108.674606 74.873039,106.207321 
	C77.276733,107.518822 75.422462,109.925316 75.827415,112.368683 
z"/>
<path fill="#F8B9A5" opacity="1.000000" stroke="none" 
	d="
M116.090668,21.455399 
	C116.455444,21.586233 116.746811,22.144598 117.128799,23.014816 
	C117.000160,24.681973 116.780907,26.037273 116.368103,27.682064 
	C116.122116,25.942013 116.069687,23.912470 116.090668,21.455399 
z"/>
<path fill="#EE9C7E" opacity="1.000000" stroke="none" 
	d="
M86.691612,100.729736 
	C86.804199,103.251068 86.752647,105.421783 86.431580,107.899216 
	C86.108849,106.114769 86.055618,104.023598 85.964409,101.490601 
	C85.926422,101.048775 85.919189,100.966476 85.959068,100.955719 
	C86.175125,100.756332 86.351303,100.567719 86.691612,100.729736 
z"/>
<path fill="#F8B9A5" opacity="1.000000" stroke="none" 
	d="
M37.060524,176.993317 
	C38.640388,178.582993 38.024433,181.008987 38.149822,183.724625 
	C35.927937,182.201904 37.419262,179.687592 37.060524,176.993317 
z"/>
<path fill="#F8B9A5" opacity="1.000000" stroke="none" 
	d="
M38.351784,190.469376 
	C40.656078,191.253357 39.921055,193.602631 40.229362,195.946808 
	C37.597298,195.128510 40.071602,192.357651 38.351784,190.469376 
z"/>
<path fill="#F7B19C" opacity="1.000000" stroke="none" 
	d="
M122.622543,53.633434 
	C122.976372,53.046352 123.286728,52.622059 123.841919,52.097996 
	C123.981262,53.203468 123.875755,54.408707 123.457413,55.799759 
	C121.822464,56.347073 121.603432,55.546772 121.997253,54.298653 
	C122.394341,54.078075 122.579071,53.796227 122.622543,53.633434 
z"/>
<path fill="#DB6C46" opacity="1.000000" stroke="none" 
	d="
M131.127625,115.382401 
	C132.435852,117.010391 132.205246,119.162735 131.409180,121.639633 
	C131.153397,119.900055 131.097321,117.858513 131.127625,115.382401 
z"/>
<path fill="#FFCCB5" opacity="1.000000" stroke="none" 
	d="
M187.284592,123.943123 
	C186.873856,122.290123 186.851990,120.493248 186.829559,118.242294 
	C188.897537,119.540833 187.869583,121.728470 187.284592,123.943123 
z"/>
<path fill="#EE9C7E" opacity="1.000000" stroke="none" 
	d="
M179.222824,221.237488 
	C178.618103,219.787903 179.171158,218.409317 180.717255,217.117203 
	C181.169281,218.560791 180.959732,220.020844 179.222824,221.237488 
z"/>
<path fill="#F7B19C" opacity="1.000000" stroke="none" 
	d="
M190.988708,183.391266 
	C191.099579,183.078735 191.598923,183.066559 191.848251,183.055679 
	C191.950012,184.309357 191.802460,185.573929 191.303894,187.008514 
	C189.289459,186.055679 190.458588,184.871643 190.988708,183.391266 
z"/>
<path fill="#D95C2F" opacity="1.000000" stroke="none" 
	d="
M36.958332,158.758118 
	C36.551666,159.098221 36.164719,159.098907 35.488281,159.076385 
	C35.156601,158.276535 35.114410,157.499893 35.139008,156.336212 
	C36.485863,156.277649 36.999496,157.156174 36.958332,158.758118 
z"/>
<path fill="#EE9C7E" opacity="1.000000" stroke="none" 
	d="
M32.942066,151.365677 
	C33.934368,150.951492 34.386051,151.674866 34.971710,152.689087 
	C35.204792,153.134583 35.300953,153.293243 35.329830,153.721954 
	C35.230881,154.188156 35.199219,154.384323 35.104553,154.872131 
	C33.604256,154.467056 33.486515,152.974808 32.942066,151.365677 
z"/>
<path fill="#F3A285" opacity="1.000000" stroke="none" 
	d="
M57.966362,91.432083 
	C57.940613,91.051064 58.354706,91.071182 58.561512,91.071121 
	C58.942455,92.243858 59.116592,93.416664 59.151566,94.850021 
	C57.265774,94.446617 58.222595,92.946175 57.966362,91.432083 
z"/>
<path fill="#F7B19C" opacity="1.000000" stroke="none" 
	d="
M28.155333,146.375504 
	C28.676798,145.943802 29.215057,145.841141 29.922018,145.684845 
	C30.437010,146.217438 30.783300,146.803680 31.052628,147.732422 
	C29.732506,148.249573 28.905283,147.573288 28.155333,146.375504 
z"/>
<path fill="#FFCCB5" opacity="1.000000" stroke="none" 
	d="
M157.236847,72.975822 
	C156.321320,72.198975 155.382935,72.329430 154.230515,72.085205 
	C155.556381,70.601707 156.997818,70.021141 157.236847,72.975822 
z"/>
<path fill="#F7B19C" opacity="1.000000" stroke="none" 
	d="
M124.414291,51.909687 
	C123.487259,50.472466 123.816933,48.952316 124.771240,47.215736 
	C124.975304,48.562000 124.876770,50.153896 124.414291,51.909687 
z"/>
<path fill="#E77045" opacity="1.000000" stroke="none" 
	d="
M106.661942,45.065353 
	C107.019386,46.136814 106.919197,47.257717 105.291168,47.910683 
	C104.886589,46.799843 105.454315,45.910610 106.661942,45.065353 
z"/>
<path fill="#E56E41" opacity="1.000000" stroke="none" 
	d="
M122.090836,54.296516 
	C122.519966,54.587311 122.645592,55.096546 122.957893,55.795677 
	C122.642143,56.596031 122.139717,57.206493 121.364853,57.932880 
	C121.041405,56.815277 120.867897,55.557655 122.090836,54.296516 
z"/>
<path fill="#F3AA8F" opacity="1.000000" stroke="none" 
	d="
M120.351929,63.983040 
	C119.510124,62.757797 120.002327,61.639980 120.993843,60.325386 
	C121.075172,61.358360 120.867516,62.627739 120.351929,63.983040 
z"/>
<path fill="#E79275" opacity="1.000000" stroke="none" 
	d="
M88.080734,117.072800 
	C89.262535,118.130760 89.198158,119.765587 88.420792,121.712189 
	C88.128693,120.490379 88.072701,119.007347 88.080734,117.072800 
z"/>
<path fill="#E87F57" opacity="1.000000" stroke="none" 
	d="
M60.218708,170.607727 
	C60.000893,170.985626 59.583576,171.057434 59.374870,171.093811 
	C59.100044,169.705917 59.033928,168.281677 58.916721,166.433838 
	C59.045719,166.008224 59.225803,166.006195 59.675915,166.012161 
	C60.931068,167.327621 60.362873,168.816116 60.218708,170.607727 
z"/>
<path fill="#DB6C46" opacity="1.000000" stroke="none" 
	d="
M157.052368,136.586975 
	C155.564301,135.676407 155.767151,134.080399 156.613998,132.121094 
	C156.892960,133.266418 156.958282,134.711304 157.052368,136.586975 
z"/>
<path fill="#F8B9A5" opacity="1.000000" stroke="none" 
	d="
M203.152527,150.799591 
	C201.826706,151.157227 200.275833,151.165726 198.262054,151.137268 
	C199.292130,149.175262 201.138351,150.038269 203.152527,150.799591 
z"/>
<path fill="#F9E6D0" opacity="1.000000" stroke="none" 
	d="
M54.767307,78.670212 
	C53.863609,79.117676 53.287659,79.595398 53.089455,80.856750 
	C51.695599,80.600433 51.712231,79.381409 52.211731,78.463554 
	C52.751217,77.472237 53.855873,78.096573 54.767307,78.670212 
z"/>
<path fill="#F3AA8F" opacity="1.000000" stroke="none" 
	d="
M123.876350,31.208485 
	C123.651054,30.037405 123.600517,29.107939 123.769760,27.994293 
	C125.715294,28.644714 124.785278,30.205547 124.934868,31.878292 
	C124.605675,32.016449 124.328392,31.733273 123.876350,31.208485 
z"/>
<path fill="#D39C8C" opacity="1.000000" stroke="none" 
	d="
M201.772095,155.814789 
	C201.642532,154.546188 202.295105,153.912933 203.776367,153.932465 
	C203.800034,155.094513 203.124969,155.725235 201.772095,155.814789 
z"/>
<path fill="#E87F57" opacity="1.000000" stroke="none" 
	d="
M172.980270,231.318680 
	C172.351608,230.644806 172.380676,229.895340 173.575378,229.251678 
	C173.932388,229.901764 173.968430,230.651749 172.980270,231.318680 
z"/>
<path fill="#F3AA8F" opacity="1.000000" stroke="none" 
	d="
M55.790768,125.790054 
	C56.108311,126.726021 56.087536,127.898727 55.968445,129.500977 
	C55.770851,130.164108 55.671566,130.397659 55.382187,130.301392 
	C55.048420,128.641434 54.581833,127.289978 55.790768,125.790054 
z"/>
<path fill="#D95C2F" opacity="1.000000" stroke="none" 
	d="
M116.225487,74.033333 
	C115.911316,74.177567 115.496330,74.281166 115.288513,74.336220 
	C115.073540,73.456123 115.257164,72.617981 116.520157,72.063599 
	C116.733643,72.600647 116.636650,73.244873 116.225487,74.033333 
z"/>
<path fill="#EE9574" opacity="1.000000" stroke="none" 
	d="
M55.114685,130.315765 
	C55.192101,129.971573 55.531250,129.948135 55.700691,129.939331 
	C55.946392,130.995712 55.852715,132.009003 54.648804,133.002808 
	C54.545994,132.363907 54.791630,131.511948 55.114685,130.315765 
z"/>
<path fill="#DB6C46" opacity="1.000000" stroke="none" 
	d="
M156.061646,116.636391 
	C154.966507,116.151436 154.947556,114.917091 155.001083,113.297913 
	C156.598251,113.667313 155.808533,115.114479 156.061646,116.636391 
z"/>
<path fill="#E87F57" opacity="1.000000" stroke="none" 
	d="
M150.333344,253.124878 
	C150.555573,252.161148 151.437439,252.005249 152.713257,252.000107 
	C152.455704,252.872559 152.247742,254.546646 150.333344,253.124878 
z"/>
<path fill="#F3AA8F" opacity="1.000000" stroke="none" 
	d="
M54.189693,133.577255 
	C54.300362,133.215881 54.331272,133.188187 54.342903,133.205353 
	C55.042080,134.105850 55.170811,135.120346 54.999611,136.585510 
	C54.947422,136.978012 54.547577,136.981873 54.347649,136.979736 
	C54.124825,135.964615 54.101925,134.951630 54.189693,133.577255 
z"/>
<path fill="#DB6C46" opacity="1.000000" stroke="none" 
	d="
M156.908325,119.864212 
	C156.541550,119.365852 156.258408,118.494377 156.006622,117.272598 
	C157.319016,117.420921 156.936661,118.537277 156.908325,119.864212 
z"/>
<path fill="#F8B9A5" opacity="1.000000" stroke="none" 
	d="
M123.042305,24.561028 
	C122.093613,24.341887 121.859222,23.357487 121.853378,21.907431 
	C123.001091,22.119070 123.102798,23.106026 123.042305,24.561028 
z"/>
<path fill="#DB6C46" opacity="1.000000" stroke="none" 
	d="
M131.115784,104.395264 
	C131.189346,104.026566 131.548401,104.014526 131.726898,104.009232 
	C131.803802,104.831787 131.702179,105.659653 131.416016,106.747124 
	C131.168365,106.259148 131.105301,105.511551 131.115784,104.395264 
z"/>
<path fill="#DB6C46" opacity="1.000000" stroke="none" 
	d="
M151.322784,107.031830 
	C151.171982,106.461266 151.327621,105.935158 151.669510,105.202301 
	C152.213058,105.530876 152.570358,106.066200 152.891830,106.930420 
	C152.447083,107.198303 152.038147,107.137291 151.322784,107.031830 
z"/>
<path fill="#F7B19C" opacity="1.000000" stroke="none" 
	d="
M185.384155,132.955948 
	C184.511658,132.065033 184.945007,131.220001 185.787628,130.199310 
	C185.970291,130.951508 185.849365,131.896912 185.384155,132.955948 
z"/>
<path fill="#F3AA8F" opacity="1.000000" stroke="none" 
	d="
M119.484894,65.734062 
	C119.320732,65.273521 119.397507,64.688896 119.778503,64.057571 
	C119.963760,64.543900 119.844795,65.076942 119.484894,65.734062 
z"/>
<path fill="#F7B19C" opacity="1.000000" stroke="none" 
	d="
M184.395523,134.786957 
	C184.243286,134.307373 184.351166,133.707443 184.771378,133.055847 
	C184.941025,133.558334 184.798325,134.112473 184.395523,134.786957 
z"/>
<path fill="#FFCCB5" opacity="1.000000" stroke="none" 
	d="
M153.697159,71.956909 
	C153.944061,72.674332 153.398865,72.824524 152.478409,72.889496 
	C152.164047,72.027054 152.808792,72.055252 153.697159,71.956909 
z"/>
<path fill="#F8B9A5" opacity="1.000000" stroke="none" 
	d="
M180.706024,118.047104 
	C180.834793,118.480759 180.683731,119.038406 180.278015,119.753433 
	C180.157639,119.330910 180.291916,118.750992 180.706024,118.047104 
z"/>
<path fill="#EE9C7E" opacity="1.000000" stroke="none" 
	d="
M177.373260,224.919846 
	C177.050339,224.814087 177.032333,224.628967 176.960403,224.168762 
	C177.112732,223.603470 177.319000,223.313263 177.799423,223.024567 
	C177.941772,223.630875 177.809982,224.235687 177.373260,224.919846 
z"/>
<path fill="#F3A285" opacity="1.000000" stroke="none" 
	d="
M46.957706,219.325470 
	C47.688103,219.174805 47.904091,219.767044 48.015236,220.769531 
	C47.251694,220.917404 46.995068,220.375229 46.957706,219.325470 
z"/>
<path fill="#F3A285" opacity="1.000000" stroke="none" 
	d="
M45.943802,217.336731 
	C46.762001,217.088715 47.025677,217.680634 47.056992,218.731384 
	C46.149822,218.944580 45.946133,218.386032 45.943802,217.336731 
z"/>
<path fill="#F7B19C" opacity="1.000000" stroke="none" 
	d="
M124.980705,46.275269 
	C124.990891,46.004330 125.399513,45.982952 125.604080,45.977821 
	C125.715454,46.281094 125.622261,46.589504 125.279305,46.991577 
	C125.009865,46.905563 124.990189,46.725883 124.980705,46.275269 
z"/>
<path fill="#F7B19C" opacity="1.000000" stroke="none" 
	d="
M31.002285,148.294525 
	C31.266758,148.199219 31.614101,148.396622 32.031704,148.912125 
	C31.763027,149.015884 31.424091,148.801544 31.002285,148.294525 
z"/>
<path fill="#EE9C7E" opacity="1.000000" stroke="none" 
	d="
M32.170105,150.189758 
	C32.434792,150.128891 32.633602,150.375290 32.905975,150.862396 
	C32.727924,150.868668 32.436153,150.666656 32.170105,150.189758 
z"/>
<path fill="#DB6C46" opacity="1.000000" stroke="none" 
	d="
M157.851654,137.774719 
	C157.562332,137.859955 157.348694,137.631622 157.091400,137.142944 
	C157.295990,137.117477 157.589203,137.310349 157.851654,137.774719 
z"/>
<path fill="#EE9C7E" opacity="1.000000" stroke="none" 
	d="
M181.224548,216.988373 
	C181.079773,216.780396 181.234695,216.529099 181.624222,216.177368 
	C181.689590,216.330734 181.578064,216.620117 181.224548,216.988373 
z"/>
<path fill="#EE9574" opacity="1.000000" stroke="none" 
	d="
M54.980797,152.197937 
	C55.151375,152.140320 55.281879,152.338043 55.263691,152.693359 
	C55.216213,152.803864 55.041943,152.406219 54.980797,152.197937 
z"/>
<path fill="#F8B9A5" opacity="1.000000" stroke="none" 
	d="
M186.724319,113.560379 
	C186.556168,113.598267 186.399628,113.390869 186.113647,113.054550 
	C186.237457,112.998222 186.488022,113.128052 186.724319,113.560379 
z"/>
<path fill="#F8B9A5" opacity="1.000000" stroke="none" 
	d="
M181.765228,116.896439 
	C181.883163,117.169975 181.728470,117.560837 181.248138,117.975632 
	C181.112534,117.670967 181.302551,117.342361 181.765228,116.896439 
z"/>
<path fill="#EE9C7E" opacity="1.000000" stroke="none" 
	d="
M178.369293,222.952576 
	C178.125259,222.647095 178.219513,222.225662 178.610229,221.634094 
	C178.840332,221.921524 178.773972,222.379059 178.369293,222.952576 
z"/>
<path fill="#FEAC04" opacity="1.000000" stroke="none" 
	d="
M142.016571,256.020142 
	C141.171890,255.827271 140.318588,255.627045 139.221954,255.201324 
	C137.700836,252.580582 138.861176,250.325668 139.736572,248.286270 
	C143.072693,240.514084 144.135452,232.293671 145.067932,224.013336 
	C145.496429,220.208282 146.515945,216.510422 147.690125,212.664673 
	C145.381210,213.475693 144.912613,215.596176 143.768906,217.130081 
	C142.277725,219.129974 140.809601,221.748825 137.823456,220.208801 
	C134.956070,218.730011 135.934311,215.959732 136.589096,213.525101 
	C136.761749,212.883179 136.999802,212.256699 137.255447,211.640686 
	C140.469177,203.897339 138.893738,196.734894 134.307236,188.914215 
	C133.624115,193.356125 132.585022,196.796936 130.925949,200.014114 
	C128.196014,205.307892 124.114555,207.664566 119.827293,206.404007 
	C115.547760,205.145721 113.463326,201.039886 114.104378,194.969269 
	C114.366920,192.482941 115.184021,190.085876 115.549973,187.624542 
	C116.423454,181.749649 116.151054,176.066650 111.264595,170.157547 
	C110.486870,179.726013 106.386208,187.231735 103.908859,195.279480 
	C101.690224,202.486725 101.822319,209.693909 103.395393,216.981369 
	C104.096352,220.228622 104.047211,223.515533 100.763458,225.396057 
	C97.401840,227.321167 94.727592,225.456299 92.176857,223.244431 
	C91.249359,234.093307 93.933342,243.778137 100.718338,252.230774 
	C101.455093,253.148605 101.955215,254.199265 102.280121,255.755096 
	C102.345230,257.027222 102.144730,257.828430 101.307899,258.815186 
	C98.906563,258.701569 97.135628,257.677094 95.229134,256.224609 
	C93.959015,254.903030 92.848000,253.917542 91.143356,253.211380 
	C82.512108,247.979614 76.961349,240.329453 72.139496,232.150864 
	C66.859550,223.195282 63.542152,213.401764 61.362343,203.274902 
	C60.221855,197.976456 57.794075,193.682938 53.569714,190.361145 
	C52.818062,189.770096 51.585789,189.387085 51.963131,188.171661 
	C52.307529,187.062332 53.502125,187.049042 54.496830,186.983124 
	C61.437553,186.523163 66.722313,189.372787 70.553703,195.077850 
	C71.735245,196.837173 72.703323,199.568954 75.295273,198.503738 
	C78.202911,197.308807 77.078262,194.509201 76.232285,192.397064 
	C74.377785,187.766998 72.599846,183.059677 70.212807,178.700333 
	C66.545433,172.002747 66.202942,164.983246 67.623077,157.845291 
	C69.109634,150.373505 69.983040,143.052124 66.944031,135.774979 
	C66.634323,135.033356 66.094040,134.100723 66.968933,133.515015 
	C68.123108,132.742340 69.272896,133.496216 70.186951,134.138168 
	C76.473114,138.553009 79.654510,144.714417 79.984505,152.321060 
	C80.266090,158.812027 81.734909,164.795990 86.761330,169.788940 
	C88.129936,170.859573 89.353531,170.474991 90.758545,170.096207 
	C90.960953,169.862808 91.036156,169.420410 91.095245,169.203949 
	C92.163025,167.701309 92.186470,166.143341 91.952156,164.707993 
	C90.838737,157.887207 91.611259,151.245453 93.744003,144.316681 
	C93.934555,143.949585 93.921204,143.956497 93.917053,143.945801 
	C94.923401,143.347473 94.961990,142.154755 95.699326,141.025909 
	C95.686882,138.762573 96.416862,137.085938 97.822952,135.287231 
	C98.563652,134.456879 99.089363,133.891739 99.754395,133.067245 
	C99.909538,132.822800 99.939407,132.407104 99.983093,132.203339 
	C100.713661,131.249557 101.531532,130.601822 101.942383,129.298615 
	C102.186157,128.462509 102.386528,127.930138 102.795105,127.198479 
	C103.433197,126.594154 103.790703,126.144012 103.910820,125.253456 
	C104.220215,123.861000 104.528275,122.760201 104.919937,121.326431 
	C106.125175,119.724892 105.974983,118.165283 105.998260,116.318024 
	C106.007599,115.542328 106.017189,115.094040 106.051910,114.310295 
	C106.966347,110.576004 106.332008,107.121880 106.245941,103.352295 
	C106.019852,102.566124 105.997902,102.122719 105.981850,101.346344 
	C106.267952,98.063850 105.674309,95.274612 104.278862,92.313141 
	C104.070343,91.578575 104.027870,91.132843 103.977264,90.351349 
	C103.932671,88.021828 102.988144,86.144028 103.096703,84.158211 
	C103.220901,81.886261 104.150032,80.684822 106.714500,82.639648 
	C107.995171,85.984589 109.066452,88.980545 110.144386,92.348473 
	C110.439980,93.463913 111.033714,93.978706 111.726440,94.780914 
	C112.258217,95.779648 112.597549,96.561089 112.992287,97.657974 
	C113.034920,98.575874 113.196907,99.120544 113.793930,99.792412 
	C114.047714,100.394691 114.090141,100.795822 114.126633,101.499603 
	C116.221962,108.422096 117.344604,115.180168 116.989456,122.577972 
	C117.008018,125.049606 117.031387,127.089554 117.101929,129.564667 
	C117.116737,130.456497 117.084373,130.913177 117.070328,131.713135 
	C117.954689,135.716873 117.290718,139.434219 117.501564,143.484528 
	C117.558502,144.768951 117.934464,145.630432 118.092194,146.849915 
	C118.320091,147.321167 118.443123,147.492340 118.736717,147.929749 
	C118.907280,148.195984 118.916862,148.601715 118.958847,148.800247 
	C119.814262,149.674118 120.169281,150.639893 120.795670,151.793442 
	C121.228188,152.565704 121.480858,153.092209 121.975876,153.791992 
	C122.452080,154.286652 122.757996,154.514404 123.367355,154.831512 
	C123.944122,155.224045 124.309608,155.374771 125.005371,155.481354 
	C126.757874,155.502975 128.205765,155.501953 129.966110,155.486481 
	C130.909912,155.379364 131.491272,155.188171 132.032990,154.355682 
	C133.107651,152.866180 134.369431,152.075424 135.944305,151.201843 
	C137.069687,150.965469 137.938538,150.964630 138.735565,150.045990 
	C138.908966,149.370102 138.943069,148.975555 139.032074,148.288788 
	C140.047806,146.928879 140.607864,145.715424 140.360809,143.905884 
	C140.087830,142.863098 140.138687,142.185822 140.754883,141.283051 
	C140.983536,141.014664 141.152817,141.041107 141.238235,141.034500 
	C141.853867,137.724503 143.116821,134.413147 141.172440,130.764877 
	C141.162811,129.870483 141.317245,129.384842 141.879913,128.662170 
	C143.251404,127.811821 144.281128,128.062668 145.644165,128.781525 
	C145.990768,129.003738 146.000610,128.999390 145.998779,129.004257 
	C146.452164,129.434662 146.482437,130.054337 146.944550,130.764038 
	C149.604599,132.694687 150.413025,135.345352 151.127869,138.416138 
	C151.395630,139.347015 151.484985,139.964813 151.901443,140.758575 
	C153.424454,142.864502 153.893600,144.979767 153.731232,147.627029 
	C152.398254,151.981354 153.396057,156.279022 151.948486,160.603790 
	C151.898773,161.416763 151.876053,161.863495 151.806458,162.642654 
	C151.459869,163.437302 151.140839,163.890167 151.031158,164.726578 
	C150.642624,166.420197 150.267044,167.838058 149.816574,169.616592 
	C149.446487,170.439560 149.135498,170.894379 149.033157,171.727631 
	C149.016998,175.030029 149.012070,178.057892 149.015274,181.539307 
	C149.026718,182.591522 149.204102,183.127594 149.803848,183.788605 
	C150.298004,184.143494 150.542130,184.346970 150.872726,184.803314 
	C151.404388,185.424271 151.841522,185.793701 152.691452,186.025070 
	C154.049545,186.048691 155.122894,186.025284 156.598892,186.007172 
	C157.579956,185.991501 158.110397,185.831314 158.791870,185.293518 
	C160.739471,184.099167 162.467010,183.082275 164.526459,182.008453 
	C165.142227,181.774612 165.405121,181.571030 165.818863,181.157730 
	C166.710205,180.624283 167.426315,180.269394 168.452347,179.906738 
	C169.096786,179.764435 169.401886,179.580978 169.844086,179.137589 
	C170.010590,178.926559 170.366592,178.837845 170.550003,178.835022 
	C171.832367,177.969849 173.287323,178.145813 174.747925,177.354294 
	C176.074371,177.135925 177.130066,177.111862 178.580475,177.125702 
	C180.166046,178.152649 182.255798,178.206131 182.157440,180.687439 
	C180.860382,182.233673 179.721054,183.465256 178.307098,184.854126 
	C176.255264,186.458313 174.920242,188.197311 174.227951,190.762939 
	C174.039246,191.040405 173.998840,191.025772 174.018921,191.022095 
	C173.772644,191.229767 173.535233,191.470016 173.194702,191.954773 
	C173.007751,194.915955 171.362045,197.042648 170.099213,199.689163 
	C169.537003,200.414154 169.186066,200.858322 169.015961,201.713837 
	C168.680511,203.426239 168.371582,204.854828 167.962524,206.637115 
	C167.515640,207.430969 167.167618,207.870438 166.998718,208.709717 
	C166.924789,209.740540 166.881241,210.492767 166.781387,211.617798 
	C163.632629,218.473633 163.124130,225.803421 160.053162,232.656250 
	C159.826370,233.846558 159.616394,234.679626 159.181488,235.747955 
	C158.565353,236.406235 158.196075,236.843796 157.962860,237.687958 
	C157.711365,238.511185 157.510254,239.051514 157.093002,239.790192 
	C156.745132,240.166245 156.613388,240.343948 156.238266,240.747192 
	C154.227646,245.321625 151.020950,248.553986 147.400726,251.857269 
	C146.630829,252.391510 146.506042,252.925079 146.196152,253.633118 
	C145.962509,253.784622 145.501755,253.912155 145.268402,253.964020 
	C144.258118,254.684998 143.191040,254.870361 142.229355,255.799255 
	C142.023224,256.023407 142.007935,256.012787 142.016571,256.020142 
z"/>
<path fill="#FEA10F" opacity="1.000000" stroke="none" 
	d="
M106.938217,82.569870 
	C105.152451,82.126221 104.015999,82.467781 104.050255,84.640800 
	C104.075729,86.256805 104.260262,87.870316 104.171539,89.750259 
	C100.623482,83.538559 102.166039,77.303848 105.557472,71.008286 
	C106.022491,74.722557 106.487518,78.436829 106.938217,82.569870 
z"/>
<path fill="#FEA10F" opacity="1.000000" stroke="none" 
	d="
M93.674408,144.203430 
	C94.286926,146.962341 93.394791,149.698334 92.493500,152.552307 
	C91.400253,156.014130 91.933327,159.647690 92.741852,163.226196 
	C93.151871,165.040939 93.687912,167.147781 91.492577,168.847809 
	C91.591530,160.781647 89.161705,152.311646 93.674408,144.203430 
z"/>
<path fill="#FEA10F" opacity="1.000000" stroke="none" 
	d="
M117.212479,122.680252 
	C116.006088,116.232651 115.027519,109.455635 114.084824,102.240440 
	C117.667351,108.257584 118.209839,115.198235 117.212479,122.680252 
z"/>
<path fill="#FBAE14" opacity="1.000000" stroke="none" 
	d="
M101.201202,259.318634 
	C100.990234,258.302399 101.002800,257.515747 101.023285,256.336792 
	C104.993065,254.509796 106.767822,256.526825 107.392044,260.468811 
	C106.714333,260.897888 106.210571,260.943298 105.328484,261.026550 
	C103.775017,260.559021 102.599876,260.053619 101.201202,259.318634 
z"/>
<path fill="#FEA10F" opacity="1.000000" stroke="none" 
	d="
M104.102219,92.418114 
	C106.589531,94.360939 107.480171,97.138161 106.220245,100.730766 
	C104.527824,98.470955 104.983627,95.485641 104.102219,92.418114 
z"/>
<path fill="#D95C2F" opacity="1.000000" stroke="none" 
	d="
M37.488625,171.608948 
	C37.177536,170.610718 37.051601,169.255402 36.876026,167.494751 
	C36.837894,164.690964 36.849403,162.292496 36.893913,159.443939 
	C38.881466,162.975952 37.901752,167.136810 37.488625,171.608948 
z"/>
<path fill="#FEA10F" opacity="1.000000" stroke="none" 
	d="
M106.014404,103.465652 
	C107.699059,106.376999 107.092087,109.851768 106.303833,113.649612 
	C106.047035,110.623817 106.017021,107.272797 106.014404,103.465652 
z"/>
<path fill="#FEA10F" opacity="1.000000" stroke="none" 
	d="
M105.772919,116.282593 
	C107.442574,117.683578 107.159355,119.219513 105.289642,120.815369 
	C105.184967,119.520500 105.366386,118.047531 105.772919,116.282593 
z"/>
<path fill="#FBAE14" opacity="1.000000" stroke="none" 
	d="
M91.050056,253.325500 
	C92.652237,252.982437 94.256538,253.238052 94.939911,255.622650 
	C93.357826,255.809692 92.219666,254.825775 91.050056,253.325500 
z"/>
<path fill="#FEA10F" opacity="1.000000" stroke="none" 
	d="
M101.720566,129.162628 
	C103.359505,130.811783 102.020645,131.367203 100.330620,131.950104 
	C100.094810,130.891403 100.568199,130.000168 101.720566,129.162628 
z"/>
<path fill="#FEA10F" opacity="1.000000" stroke="none" 
	d="
M95.550049,140.899780 
	C95.939713,141.966461 96.033470,143.186447 94.258286,143.858383 
	C93.929794,142.774628 94.140327,141.704117 95.550049,140.899780 
z"/>
<path fill="#E45526" opacity="1.000000" stroke="none" 
	d="
M60.226807,170.725800 
	C59.986675,169.606262 59.972454,168.226898 59.952087,166.433838 
	C61.257004,167.371887 61.207703,168.878708 60.226807,170.725800 
z"/>
<path fill="#E45526" opacity="1.000000" stroke="none" 
	d="
M120.049622,105.272659 
	C121.250336,106.165726 120.915070,107.751740 121.069077,109.611916 
	C120.306709,109.411255 120.057396,108.585609 119.988098,107.333984 
	C119.987877,106.539436 120.007996,106.078667 120.049622,105.272659 
z"/>
<path fill="#FEA10F" opacity="1.000000" stroke="none" 
	d="
M103.713272,125.169479 
	C104.754539,125.796181 104.666183,126.448761 103.268707,126.948334 
	C103.173676,126.458504 103.344032,125.917824 103.713272,125.169479 
z"/>
<path fill="#FEA10F" opacity="1.000000" stroke="none" 
	d="
M113.974152,99.705170 
	C113.147102,99.784554 112.183975,99.659966 112.867615,98.164459 
	C113.346130,98.454552 113.644569,98.935669 113.974152,99.705170 
z"/>
<path fill="#FEA10F" opacity="1.000000" stroke="none" 
	d="
M90.566772,169.890564 
	C89.983932,171.102631 88.808975,171.187622 87.254059,170.237854 
	C88.066788,169.985245 89.119698,169.951782 90.566772,169.890564 
z"/>
<path fill="#FEA10F" opacity="1.000000" stroke="none" 
	d="
M111.876450,94.693550 
	C111.021049,94.801041 110.334923,94.375763 110.163971,93.050949 
	C110.712029,93.276588 111.273018,93.832741 111.876450,94.693550 
z"/>
<path fill="#FEA10F" opacity="1.000000" stroke="none" 
	d="
M99.623795,132.940582 
	C99.861122,133.735336 99.573311,134.495987 98.320061,134.918335 
	C98.140068,134.135910 98.541016,133.461487 99.623795,132.940582 
z"/>
<path fill="#E38863" opacity="1.000000" stroke="none" 
	d="
M86.897194,100.740555 
	C86.855759,101.080360 86.428040,101.008278 86.213493,100.976616 
	C86.009377,100.170692 86.019806,99.396431 86.096245,98.238297 
	C86.421043,98.703201 86.679832,99.551971 86.897194,100.740555 
z"/>
<path fill="#D95C2F" opacity="1.000000" stroke="none" 
	d="
M35.343628,153.865906 
	C35.221203,153.825134 35.179855,153.658264 35.123566,153.233658 
	C35.390602,153.166138 35.495960,153.420776 35.343628,153.865906 
z"/>
<path fill="#FEA10F" opacity="1.000000" stroke="none" 
	d="
M160.288223,232.766479 
	C158.402466,230.855972 160.397446,229.219101 161.073441,227.597595 
	C163.156845,222.600098 162.925903,216.859436 166.419281,212.120819 
	C164.991943,218.932541 163.781998,226.032104 160.288223,232.766479 
z"/>
<path fill="#FA5D1C" opacity="1.000000" stroke="none" 
	d="
M142.384613,128.682098 
	C142.181305,129.472427 142.177765,129.906570 142.201523,130.665375 
	C143.501892,133.675293 143.140976,136.309921 141.528275,138.974579 
	C140.264709,134.718262 137.635895,130.366913 141.719971,126.095245 
	C142.606796,126.719612 142.800323,127.477821 142.384613,128.682098 
z"/>
<path fill="#FEA10F" opacity="1.000000" stroke="none" 
	d="
M152.176025,160.687592 
	C151.517136,156.688004 151.512680,152.441818 153.372299,148.169495 
	C154.259781,152.238846 154.088547,156.397568 152.176025,160.687592 
z"/>
<path fill="#FEA10F" opacity="1.000000" stroke="none" 
	d="
M141.090302,139.365356 
	C142.654083,136.807877 141.724869,134.228943 142.163422,131.412781 
	C145.813202,134.350739 143.319458,137.521576 141.624176,140.877319 
	C141.251526,140.585739 141.179398,140.143570 141.090302,139.365356 
z"/>
<path fill="#FA5D1C" opacity="1.000000" stroke="none" 
	d="
M117.020935,146.285141 
	C116.996895,141.656296 116.998283,137.312592 117.044159,132.512665 
	C119.092133,136.975616 117.097878,142.375305 118.914978,147.755981 
	C118.907280,148.195984 118.417557,148.104568 118.172066,148.062347 
	C117.550018,147.587326 117.189651,147.144699 117.020935,146.285141 
z"/>
<path fill="#FA5D1C" opacity="1.000000" stroke="none" 
	d="
M137.181244,151.703766 
	C135.767609,152.846954 134.594955,153.721924 133.223877,154.837463 
	C132.729950,155.361481 132.376831,155.526871 131.480240,155.288528 
	C131.719742,152.164307 133.368256,150.351212 136.776245,150.074997 
	C137.422928,150.494247 137.514938,150.946091 137.181244,151.703766 
z"/>
<path fill="#FEA10F" opacity="1.000000" stroke="none" 
	d="
M182.304413,180.950714 
	C181.049942,179.916000 180.100174,178.829895 179.062805,177.453705 
	C180.937561,176.987259 182.982224,176.844574 184.053680,178.918549 
	C184.666840,180.105423 183.521744,180.540939 182.304413,180.950714 
z"/>
<path fill="#FEA10F" opacity="1.000000" stroke="none" 
	d="
M174.317093,190.859863 
	C173.850983,188.359146 174.365753,186.067825 177.675354,185.069992 
	C177.486542,187.264557 176.062805,188.985321 174.317093,190.859863 
z"/>
<path fill="#E6612D" opacity="1.000000" stroke="none" 
	d="
M148.808548,89.321983 
	C149.076706,92.690582 149.090118,96.378471 149.086899,100.527649 
	C147.167450,97.285156 147.915573,93.460709 148.808548,89.321983 
z"/>
<path fill="#FEA10F" opacity="1.000000" stroke="none" 
	d="
M142.562439,129.029724 
	C142.137894,128.287079 142.090973,127.535851 142.062744,126.409424 
	C143.701263,126.205772 144.808365,127.149574 145.841095,128.717285 
	C144.973862,129.009537 143.956955,129.015335 142.562439,129.029724 
z"/>
<path fill="#DB6C46" opacity="1.000000" stroke="none" 
	d="
M156.596283,122.244102 
	C156.834213,124.334068 156.875351,126.755234 156.829620,129.624573 
	C155.571518,127.621979 155.854370,125.104645 156.596283,122.244102 
z"/>
<path fill="#FEA10F" opacity="1.000000" stroke="none" 
	d="
M174.656403,177.114532 
	C174.469131,178.990387 173.006912,178.995743 171.118286,178.875122 
	C171.424377,177.242889 172.775650,176.987122 174.656403,177.114532 
z"/>
<path fill="#FA5D1C" opacity="1.000000" stroke="none" 
	d="
M131.187592,155.801437 
	C128.994080,156.008499 126.974632,155.995438 124.493179,155.466110 
	C126.060043,154.965088 128.088913,154.980331 130.552017,154.990891 
	C130.986252,154.986221 131.037582,155.038498 131.063232,155.064636 
	C131.179810,155.254303 131.270752,155.417816 131.187592,155.801437 
z"/>
<path fill="#FA5D1C" opacity="1.000000" stroke="none" 
	d="
M140.683624,141.089691 
	C140.982147,141.752823 140.980759,142.490982 140.978851,143.598602 
	C140.849274,144.194443 140.720184,144.420792 140.339828,144.347778 
	C139.033508,142.969101 138.781387,141.972000 140.683624,141.089691 
z"/>
<path fill="#FEA10F" opacity="1.000000" stroke="none" 
	d="
M140.025238,144.383652 
	C140.088547,144.048386 140.533875,144.010803 140.756104,143.989441 
	C140.918106,145.351532 141.313599,146.883514 139.412628,147.884888 
	C139.378616,146.904022 139.670258,145.811462 140.025238,144.383652 
z"/>
<path fill="#FA5D1C" opacity="1.000000" stroke="none" 
	d="
M120.966316,151.695374 
	C119.984520,151.518692 119.319748,150.740723 119.037971,149.314987 
	C120.305542,149.240417 120.924500,150.052231 120.966316,151.695374 
z"/>
<path fill="#FEA10F" opacity="1.000000" stroke="none" 
	d="
M169.201904,201.802887 
	C168.210800,201.157272 168.359192,200.526138 169.671967,200.046982 
	C169.755646,200.531784 169.584991,201.069962 169.201904,201.802887 
z"/>
<path fill="#FEA10F" opacity="1.000000" stroke="none" 
	d="
M167.182343,208.796661 
	C166.181320,208.164185 166.299347,207.532776 167.615982,207.047455 
	C167.707031,207.528854 167.551682,208.066940 167.182343,208.796661 
z"/>
<path fill="#FEA10F" opacity="1.000000" stroke="none" 
	d="
M158.724457,185.128113 
	C158.788147,185.953018 158.589188,186.822845 157.189194,186.181824 
	C157.480011,185.721725 157.958496,185.430954 158.724457,185.128113 
z"/>
<path fill="#FEA10F" opacity="1.000000" stroke="none" 
	d="
M152.785797,185.852753 
	C152.077576,186.825211 151.470276,186.574295 151.047852,185.265808 
	C151.532730,185.214813 152.064072,185.424118 152.785797,185.852753 
z"/>
<path fill="#FEA10F" opacity="1.000000" stroke="none" 
	d="
M149.967896,183.706345 
	C149.158081,183.789810 148.197098,183.678040 148.847763,182.184143 
	C149.323639,182.469284 149.623886,182.945679 149.967896,183.706345 
z"/>
<path fill="#FEA10F" opacity="1.000000" stroke="none" 
	d="
M137.261597,151.902924 
	C136.982391,151.550766 137.024521,151.129547 137.106430,150.394180 
	C137.531830,150.018524 137.917435,149.957031 138.588959,149.830093 
	C138.855255,150.711029 138.574249,151.494171 137.261597,151.902924 
z"/>
<path fill="#FEA10F" opacity="1.000000" stroke="none" 
	d="
M158.136856,237.783249 
	C157.177856,237.084961 157.417191,236.475021 158.701157,236.035965 
	C158.758133,236.520706 158.559677,237.058182 158.136856,237.783249 
z"/>
<path fill="#FEA10F" opacity="1.000000" stroke="none" 
	d="
M149.214172,171.795456 
	C148.242294,171.257172 148.232178,170.615662 149.508667,170.046570 
	C149.629929,170.514435 149.518188,171.051575 149.214172,171.795456 
z"/>
<path fill="#FEA10F" opacity="1.000000" stroke="none" 
	d="
M151.215363,164.798309 
	C150.232056,164.246460 150.238358,163.604141 151.524384,163.043304 
	C151.643875,163.514801 151.528198,164.054535 151.215363,164.798309 
z"/>
<path fill="#FEA10F" opacity="1.000000" stroke="none" 
	d="
M152.081390,140.661987 
	C151.802078,140.450836 151.471390,139.937958 151.135559,139.103943 
	C151.430283,139.308609 151.730148,139.834427 152.081390,140.661987 
z"/>
<path fill="#FA5D1C" opacity="1.000000" stroke="none" 
	d="
M123.275551,155.253448 
	C122.765411,154.884491 122.552895,154.660599 122.299744,154.181580 
	C122.697250,154.168610 123.176262,154.371964 123.843224,154.762573 
	C124.031174,154.949844 124.013939,154.979523 124.003983,154.992950 
	C123.840103,155.150024 123.686195,155.293671 123.275551,155.253448 
z"/>
<path fill="#FEA10F" opacity="1.000000" stroke="none" 
	d="
M146.138885,253.827728 
	C146.194733,253.302872 146.426941,252.821106 146.887878,252.183960 
	C147.038925,252.451492 146.961227,252.874420 146.779968,253.603058 
	C146.676407,253.908798 146.315262,253.870834 146.138885,253.827728 
z"/>
<path fill="#FEA10F" opacity="1.000000" stroke="none" 
	d="
M147.102539,130.662521 
	C146.814621,130.496048 146.455444,130.045502 146.046600,129.302048 
	C146.341705,129.465576 146.686493,129.922028 147.102539,130.662521 
z"/>
<path fill="#FEA10F" opacity="1.000000" stroke="none" 
	d="
M156.186676,240.852264 
	C156.126251,240.701218 156.303162,240.463623 156.701233,240.124222 
	C156.781326,240.283615 156.615204,240.531372 156.186676,240.852264 
z"/>
<path fill="#FEA10F" opacity="1.000000" stroke="none" 
	d="
M173.268845,192.017273 
	C173.248886,191.886002 173.431229,191.597763 173.826279,191.163971 
	C173.849701,191.299042 173.660431,191.579651 173.268845,192.017273 
z"/>
<path fill="#FEA10F" opacity="1.000000" stroke="none" 
	d="
M169.768433,179.040222 
	C169.763336,179.183868 169.516083,179.441177 169.015549,179.798737 
	C169.016937,179.650620 169.271622,179.402252 169.768433,179.040222 
z"/>
<path fill="#FEA10F" opacity="1.000000" stroke="none" 
	d="
M165.770905,181.097870 
	C165.769363,181.229416 165.544647,181.479691 165.089172,181.840729 
	C165.088181,181.706528 165.317947,181.461548 165.770905,181.097870 
z"/>
<path fill="#FEDD42" opacity="1.000000" stroke="none" 
	d="
M107.601540,260.889709 
	C105.924469,258.632233 103.847107,257.321045 101.364517,256.018890 
	C92.205032,246.276840 88.762062,234.861038 90.004639,221.463593 
	C90.685875,220.386414 90.323563,219.159836 91.681999,218.884491 
	C92.226784,221.050140 93.673088,222.153137 95.236557,223.179443 
	C96.756783,224.177338 98.198044,225.561523 100.177658,224.170441 
	C101.925606,222.942154 102.293724,221.081375 101.770645,219.260391 
	C98.159454,206.688705 100.876404,194.955582 105.968842,183.370956 
	C107.899544,178.978882 109.248390,174.277756 109.064804,169.319244 
	C109.030029,168.380020 108.792648,167.148438 109.979683,166.715866 
	C111.099777,166.307663 111.796974,167.282211 112.465263,167.978897 
	C118.220215,173.978485 118.927246,181.211761 117.460564,188.924637 
	C116.871475,192.022522 115.849815,195.019272 115.908791,198.253738 
	C115.962967,201.225723 117.012657,203.542084 119.752380,204.675278 
	C122.787392,205.930603 125.413025,204.788208 127.201195,202.246490 
	C130.220490,197.954834 132.017090,193.188065 132.013062,187.833679 
	C132.012253,186.746231 131.557999,185.185089 132.922745,184.742081 
	C134.535507,184.218582 135.204208,185.816238 135.835403,186.898102 
	C140.843384,195.481934 143.278427,204.353180 138.588699,213.938644 
	C138.370422,214.384781 138.190811,214.863495 138.082230,215.347046 
	C137.773376,216.722412 136.509659,218.437180 138.380325,219.341141 
	C140.357208,220.296417 140.867111,218.255524 141.469131,217.000992 
	C142.931824,213.952957 144.615433,211.097244 147.579315,209.283478 
	C148.662170,208.620804 149.961792,207.501022 151.187820,208.643066 
	C152.298050,209.677246 151.093460,210.811111 150.597504,211.764130 
	C146.309433,220.003860 147.136520,229.301620 145.159149,238.020554 
	C143.863022,243.735703 141.680542,249.055939 139.136490,254.657806 
	C137.501053,255.803162 136.414078,256.968323 135.707245,258.935211 
	C133.908920,260.524231 132.262024,261.795135 129.845734,260.012512 
	C129.188904,254.857880 131.946869,250.073715 130.061539,245.074768 
	C129.606674,243.868729 129.614319,242.488464 128.993393,241.266998 
	C127.930000,239.175186 127.063179,236.757050 124.305367,236.611282 
	C121.626152,236.469711 120.239571,238.567108 119.025398,240.581894 
	C117.645958,242.870926 116.130943,245.038300 114.349358,247.039703 
	C110.253357,251.641205 110.152725,252.718460 113.018188,258.558350 
	C113.390907,259.317963 113.671143,260.083893 113.488060,261.268707 
	C111.569290,261.372070 109.777138,261.149506 107.601540,260.889709 
z"/>
<path fill="#FCF9DA" opacity="1.000000" stroke="none" 
	d="
M113.569809,261.658508 
	C106.969620,254.426132 107.056610,251.886200 114.071564,244.648560 
	C115.609879,243.061417 116.530296,241.152466 117.484871,239.217072 
	C118.773575,236.604202 120.552704,234.247543 123.720894,234.249176 
	C127.003494,234.250885 129.210052,236.140869 130.341583,239.311050 
	C132.724426,245.986923 134.443390,252.621979 129.809814,259.472168 
	C125.595901,262.006073 121.268501,262.249207 116.399902,261.997742 
	C115.587120,262.385559 115.156845,262.502563 114.405182,262.199219 
	C114.139526,261.966125 113.778168,261.722412 113.569809,261.658508 
z"/>
<path fill="#DC964A" opacity="1.000000" stroke="none" 
	d="
M113.842026,262.187195 
	C114.543549,261.953857 114.947578,261.941559 115.652054,261.989990 
	C116.464989,262.512390 116.977463,262.974121 117.659027,263.631256 
	C114.849960,263.888000 111.871788,263.949280 108.447227,263.942627 
	C109.595596,262.428925 111.858734,263.509888 113.842026,262.187195 
z"/>
<path fill="#FEA10F" opacity="1.000000" stroke="none" 
	d="
M142.334137,255.971924 
	C142.227890,254.695786 143.043976,254.081848 144.690109,254.025009 
	C144.499695,254.978653 143.729065,255.646179 142.334137,255.971924 
z"/>
<path fill="#FFD431" opacity="1.000000" stroke="none" 
	d="
M91.996185,218.668335 
	C91.488327,219.541809 90.972992,220.089005 90.240829,220.816727 
	C90.063629,219.877258 89.719963,218.531433 90.220016,217.682678 
	C91.379616,215.714447 91.725883,217.184143 91.996185,218.668335 
z"/>
<path fill="#FEA10F" opacity="1.000000" stroke="none" 
	d="
M116.824997,146.189240 
	C117.290840,146.481003 117.586166,146.962021 117.904037,147.731583 
	C117.093559,147.789825 116.183777,147.619019 116.824997,146.189240 
z"/>
<path fill="#FEA10F" opacity="1.000000" stroke="none" 
	d="
M131.202881,156.188904 
	C131.013519,156.021561 131.044098,155.554596 131.066498,155.322693 
	C131.518768,155.078201 131.948639,155.065598 132.701996,155.065491 
	C132.792740,155.902344 132.626328,156.811371 131.202881,156.188904 
z"/>
<path fill="#FEA10F" opacity="1.000000" stroke="none" 
	d="
M123.160179,155.260071 
	C123.018806,155.069611 123.505867,155.028717 123.749939,155.017548 
	C123.994019,155.006393 124.038956,155.488297 124.065750,155.728714 
	C123.787018,155.860077 123.523354,155.687210 123.160179,155.260071 
z"/>
</svg>